<svg xmlns="http://www.w3.org/2000/svg" viewBox="0 0 1200 760">
<defs>
<linearGradient id="bg" x1="0" y1="0" x2="1" y2="1"><stop offset="0%" stop-color="#11392f"/><stop offset="100%" stop-color="#204f42"/></linearGradient>
<linearGradient id="wall" x1="0" y1="0" x2="1" y2="1"><stop offset="0%" stop-color="#dfe8e2"/><stop offset="100%" stop-color="#b7c8be"/></linearGradient>
</defs>
<rect width="1200" height="760" fill="url(#bg)"/>
<circle cx="195" cy="142" r="86" fill="#2c6f5a" opacity=".65"/>
<circle cx="1040" cy="600" r="130" fill="#295746" opacity=".5"/>
<rect x="120" y="110" width="960" height="540" rx="40" fill="url(#wall)"/>
<rect x="752" y="170" width="90" height="150" rx="26" fill="#0b2f27"/>
<rect x="778" y="197" width="38" height="38" rx="12" fill="#6ad29e"/>
<rect x="770" y="350" width="220" height="160" rx="28" fill="#f4f6f3" opacity=".94"/>
<rect x="180" y="200" width="350" height="260" rx="30" fill="#eff4ef" opacity=".95"/>
<rect x="220" y="242" width="120" height="160" rx="20" fill="#103931"/>
<circle cx="280" cy="323" r="36" fill="#77d9a8"/>
<rect x="372" y="242" width="110" height="110" rx="26" fill="#103931"/>
<rect x="398" y="268" width="58" height="58" rx="14" fill="#8de3b4"/>
<rect x="210" y="506" width="500" height="22" rx="11" fill="#8bac9b" opacity=".5"/>
<rect x="210" y="542" width="360" height="18" rx="9" fill="#8bac9b" opacity=".35"/>
</svg>